<svg width="512" height="512" viewBox="0 0 512 512" fill="none" xmlns="http://www.w3.org/2000/svg">
  <rect width="512" height="512" rx="112" fill="#101828"/>
  <circle cx="256" cy="256" r="154" fill="#16A34A"/>
  <path d="M186 342V166H264C302 166 326 187 326 219C326 237 317 252 302 262C324 270 338 287 338 311C338 346 311 366 270 366H186V342ZM229 243H258C274 243 284 235 284 222C284 209 274 202 257 202H229V243ZM229 328H265C284 328 295 319 295 304C295 290 284 281 265 281H229V328Z" fill="white"/>
</svg>
